<svg xmlns="http://www.w3.org/2000/svg" viewBox="0 0 64 64">
  <rect width="64" height="64" rx="15" fill="#123c35"/>
  <path d="M14 14h18c7 0 12 4 12 10v27H26c-7 0-12-4-12-10V14Z" fill="#ffd43b"/>
  <path d="M44 24c0-6-5-10-12-10h-2v37h14V24Z" fill="#5b9fe8" opacity=".94"/>
  <path d="M23 22h8.5c5.2 0 8.5 2.5 8.5 6.6 0 2.7-1.5 4.7-3.9 5.7 3.1.8 4.9 3 4.9 6.2 0 4.8-3.8 7.5-9.6 7.5H23V22Zm8 10c2.5 0 3.8-1 3.8-2.8 0-1.8-1.3-2.7-3.8-2.7h-2.6V32H31Zm.5 11.5c2.8 0 4.2-1.1 4.2-3.2 0-2-1.4-3.1-4.2-3.1h-3.1v6.3h3.1Z" fill="#123c35"/>
  <path d="m50 8 1.6 4.4L56 14l-4.4 1.6L50 20l-1.6-4.4L44 14l4.4-1.6L50 8Z" fill="#55a98c"/>
</svg>
